<svg width="18" height="18" viewBox="0 0 18 18" fill="none" xmlns="http://www.w3.org/2000/svg">
<path d="M17.487 14.14L13.422 10.444C13.2299 10.2693 12.9774 10.1762 12.7178 10.1842C12.4583 10.1922 12.212 10.3008 12.031 10.487L9.63804 12.948C9.06204 12.838 7.90404 12.477 6.71204 11.288C5.52004 10.095 5.15904 8.934 5.05204 8.362L7.51104 5.968C7.69745 5.78712 7.80617 5.54082 7.8142 5.2812C7.82223 5.02159 7.72892 4.76904 7.55404 4.57699L3.85904 0.512995C3.68408 0.320352 3.44092 0.203499 3.18119 0.187255C2.92146 0.17101 2.66564 0.256653 2.46804 0.425995L0.298038 2.28699C0.125149 2.46051 0.0219574 2.69145 0.00803782 2.93599C-0.00696218 3.18599 -0.292962 9.108 4.29904 13.702C8.30504 17.707 13.323 18 14.705 18C14.907 18 15.031 17.994 15.064 17.992C15.3086 17.9783 15.5394 17.8747 15.712 17.701L17.572 15.53C17.7421 15.333 17.8283 15.0774 17.8124 14.8177C17.7966 14.558 17.6798 14.3148 17.487 14.14Z" fill="#222831"/>
</svg>
