<svg width="69" height="69" viewBox="0 0 69 69" fill="none" xmlns="http://www.w3.org/2000/svg">
<path fill-rule="evenodd" clip-rule="evenodd" d="M34.5 69C53.5538 69 69 53.5538 69 34.5C69 15.4462 53.5538 0 34.5 0C15.4462 0 0 15.4462 0 34.5C0 53.5538 15.4462 69 34.5 69Z" fill="#222831"/>
<path d="M32 36C31.34 36.33 30.79 36.82 30.38 37.43C30.15 37.78 30.15 38.22 30.38 38.57C30.79 39.18 31.34 39.67 32 40" stroke="#00D0B0" stroke-width="1.5" stroke-linecap="round" stroke-linejoin="round"/>
<path d="M38.21 36C38.87 36.33 39.42 36.82 39.83 37.43C40.06 37.78 40.06 38.22 39.83 38.57C39.42 39.18 38.87 39.67 38.21 40" stroke="#00D0B0" stroke-width="1.5" stroke-linecap="round" stroke-linejoin="round"/>
<path d="M32 45H38C43 45 45 43 45 38V32C45 27 43 25 38 25H32C27 25 25 27 25 32V38C25 43 27 45 32 45Z" stroke="#00D0B0" stroke-width="1.5" stroke-linecap="round" stroke-linejoin="round"/>
<path d="M25.23 31.01L44.45 31" stroke="#00D0B0" stroke-width="1.5" stroke-linecap="round" stroke-linejoin="round"/>
</svg>
